<svg width="50" height="50" viewBox="0 0 50 50" fill="none" xmlns="http://www.w3.org/2000/svg">
<rect x="2.5" y="2.5" width="45" height="45" stroke="white" stroke-width="5"/>
<path d="M18.075 21.3438H13.3777L12.5574 24H8.89531L14.1102 9.78125H17.3328L22.5867 24H18.9051L18.075 21.3438ZM14.198 18.6973H17.2547L15.7215 13.7656L14.198 18.6973ZM40.1574 22.2422C39.6301 22.8281 38.8586 23.3001 37.843 23.6582C36.8273 24.0163 35.7141 24.1953 34.5031 24.1953C32.6411 24.1953 31.1535 23.6257 30.0402 22.4863C28.927 21.347 28.3313 19.7617 28.2531 17.7305L28.2434 16.5C28.2434 15.1003 28.4908 13.8796 28.9855 12.8379C29.4803 11.7897 30.1867 10.9857 31.1047 10.4258C32.0292 9.85938 33.0969 9.57617 34.3078 9.57617C36.0786 9.57617 37.4523 9.98307 38.4289 10.7969C39.412 11.6042 39.9849 12.8118 40.1477 14.4199H36.8469C36.7297 13.6257 36.4758 13.0592 36.0852 12.7207C35.6945 12.3822 35.1411 12.2129 34.425 12.2129C33.5656 12.2129 32.9016 12.5775 32.4328 13.3066C31.9641 14.0358 31.7264 15.0775 31.7199 16.4316V17.291C31.7199 18.7103 31.9608 19.778 32.4426 20.4941C32.9309 21.2038 33.6958 21.5586 34.7375 21.5586C35.6294 21.5586 36.2935 21.36 36.7297 20.9629V18.7559H34.3469V16.4023H40.1574V22.2422ZM21.4734 40H18.0652L13.0262 31.1523V40H9.59844V25.7812H13.0262L18.0555 34.6289V25.7812H21.4734V40ZM36.9934 37.3438H32.2961L31.4758 40H27.8137L33.0285 25.7812H36.2512L41.5051 40H37.8234L36.9934 37.3438ZM33.1164 34.6973H36.173L34.6398 29.7656L33.1164 34.6973Z" fill="white"/>
</svg>
